Coordinates
version=1
nRows=15
nColumns=23
inDegrees=yes

Units are S.I. units (second, meters, Newtons, ...)
If the header above contains a line with 'inDegrees', this indicates whether rotational values are in degrees (yes) or radians (no).

endheader
time	pelvis_tilt	pelvis_list	pelvis_rotation	pelvis_tx	pelvis_ty	pelvis_tz	hip_flexion_r	hip_adduction_r	hip_rotation_r	knee_angle_r	knee_angle_r_beta	ankle_angle_r	subtalar_angle_r	mtp_angle_r	hip_flexion_l	hip_adduction_l	hip_rotation_l	knee_angle_l	knee_angle_l_beta	ankle_angle_l	subtalar_angle_l	mtp_angle_l
     15.00000000	     -6.02198254	      7.40293846	      2.04176747	      2.33180974	      1.04529671	      1.03831112	      0.27613502	     -9.16468556	     -1.88771841	     56.38255214	      0.98406118	     -9.41003549	     -9.30303735	      0.00000000	     26.44707452	      8.66153234	    -15.60217415	     26.21298298	      0.45750286	      4.47968470	     -2.48371968	      0.00000000
     15.00666667	     -5.80590036	      7.57041323	      2.21654445	      2.33063095	      1.04006017	      1.03834196	      1.25197742	     -9.47583873	     -1.71678462	     58.90227651	      1.02803866	     -8.61480697	    -10.22180113	      0.00000000	     26.39600026	      8.95062507	    -14.89775538	     28.41761087	      0.49598088	      6.46433342	     -3.27065302	      0.00000000
     15.01333333	     -5.35429800	      7.85008166	      2.31405887	      2.32936670	      1.03506840	      1.03844583	      2.02645617	     -9.92603801	     -1.51464108	     61.37479314	      1.07119222	     -7.80489570	    -11.12752896	      0.00000000	     25.99503484	      9.36101731	    -14.24394148	     30.45690328	      0.53157324	      8.54126809	     -4.11141652	      0.00000000
     15.02000000	     -5.46646661	      7.86529134	      2.50680245	      2.32761245	      1.02928875	      1.03853681	      3.56992572	    -10.05904609	     -1.21252007	     63.96062536	      1.11632350	     -6.96166323	    -12.05117413	      0.00000000	     26.29956876	      9.50950008	    -13.52130461	     32.69917537	      0.57070827	     10.65351964	     -4.99230394	      0.00000000
     15.02666667	     -5.32851061	      7.98887711	      2.60790850	      2.32576998	      1.02393793	      1.03874902	      4.89641097	    -10.31126607	     -0.85695478	     66.46520500	      1.16003667	     -6.09858733	    -12.98129555	      0.00000000	     26.23682785	      9.74933245	    -12.90526496	     34.72795159	      0.60611710	     12.66557060	     -5.83836479	      0.00000000
     15.03333333	     -5.20788450	      8.10914128	      2.68280678	      2.32371869	      1.01874137	      1.03902800	      6.32231430	    -10.54601713	     -0.43772738	     68.92176354	      1.20291170	     -5.19149746	    -13.83576908	      0.00000000	     26.15172002	      9.97521346	    -12.33227064	     36.64882950	      0.63964274	     14.55397079	     -6.65334038	      0.00000000
     15.04000000	     -5.07368270	      8.24219947	      2.74740140	      2.32151650	      1.01378695	      1.03934221	      7.79781593	    -10.79334870	      0.00281917	     71.30830881	      1.24456477	     -4.24687877	    -14.59528008	      0.00000000	     25.99586731	     10.20470487	    -11.79736084	     38.44200058	      0.67093948	     16.32369908	     -7.39628285	      0.00000000
     15.04666667	     -4.53251502	      8.49659590	      2.77854893	      2.31941470	      1.00966901	      1.03974534	      8.81461973	    -11.16381056	      0.41516505	     73.50189669	      1.28285010	     -3.29999242	    -15.33708649	      0.00000000	     25.26305974	     10.51318908	    -11.38829684	     39.98814000	      0.69792470	     17.94805904	     -8.00330567	      0.00000000
     15.05333333	     -4.76812065	      8.57979309	      2.84418952	      2.31687782	      1.00488915	      1.04013395	     10.85739269	    -11.34117854	      0.96347404	     75.77477383	      1.32251929	     -2.31939554	    -15.79711584	      0.00000000	     25.40739649	     10.65072059	    -10.96521983	     41.56346679	      0.72541934	     19.48350220	     -8.43594996	      0.00000000
     15.06000000	     -4.33069267	      8.80474355	      2.85789580	      2.31466934	      1.00147830	      1.04061023	     12.08312413	    -11.63777436	      1.46259859	     77.72920593	      1.35663057	     -1.40589905	    -16.38436009	      0.00000000	     24.60605611	     10.89505161	    -10.61999546	     42.77066246	      0.74648888	     20.92426553	     -8.78839469	      0.00000000
     15.06666667	     -4.14738480	      8.99876690	      2.87114546	      2.31240692	      0.99819205	      1.04112326	     13.64886757	    -11.89818804	      2.00150218	     79.58221040	      1.38897160	     -0.55252440	    -16.79837630	      0.00000000	     23.99297792	     11.06982805	    -10.37047223	     43.81356130	      0.76469090	     22.23042576	     -8.91527588	      0.00000000
     15.07333333	     -4.05967013	      9.17512468	      2.91835020	      2.31021979	      0.99532640	      1.04163079	     15.31983605	    -12.08785254	      2.57855575	     81.26158787	      1.41828226	      0.24810245	    -17.08312387	      0.00000000	     23.35247138	     11.18639449	    -10.22443716	     44.64918436	      0.77927528	     23.43657766	     -8.84649920	      0.00000000
     15.08000000	     -4.22354222	      9.28291730	      2.93079929	      2.30804268	      0.99264177	      1.04223638	     17.32107387	    -12.23638529	      3.12767909	     82.80898126	      1.44528937	      1.02627131	    -17.03183224	      0.00000000	     22.88868248	     11.12879440	    -10.32764612	     45.33427955	      0.79123244	     24.53586351	     -8.27911407	      0.00000000
     15.08666667	     -4.15030662	      9.36944432	      2.97422863	      2.30613128	      0.99092630	      1.04281108	     18.96968493	    -12.30753745	      3.62238645	     84.04916506	      1.46693466	      1.67297693	    -17.10783662	      0.00000000	     21.97462865	     11.09439538	    -10.30045847	     45.68599089	      0.79737096	     25.52063267	     -7.82105970	      0.00000000
     15.09333333	     -4.01090309	      9.36140498	      3.09522770	      2.30444750	      0.98997395	      1.04327958	     20.44373468	    -12.25926413	      3.99214223	     84.99602150	      1.48346043	      2.19850155	    -17.29001233	      0.00000000	     20.82196898	     11.03875211	    -10.06701672	     45.74939444	      0.79847756	     26.33130415	     -7.64897070	      0.00000000
